# xmcd CD database file
#
# Track frame offsets:
#	150
#	9815
#	22170
#	35597
#	48525
#	60535
#	71487
#	87220
#	96977
#	113110
#	121542
#	134627
#	145060
#	157507
#	166345
#	178942
#	196490
#	211487
#	227565
#	243442
#	257917
#	272820
#	297225
#	317230
#
# Disc length: 4305 seconds
#
# Revision: 0
# Processed by: cddbd v1.4PL0 Copyright (c) Steve Scherf et al.
# Submitted via: CDex 1.40Release
#
DISCID=5810cf18
DTITLE=Hoyt Axton - Pistol Packin' Mama and Spin of the Wheel
DYEAR=1998
DGENRE=Country
TTITLE0=She's Too Lazy to Be Crazy
TTITLE1=Pistol Packin' Mama
TTITLE2=I Walk The Line
TTITLE3=Don;t Fence ME In
TTITLE4=There Stands The Glass
TTITLE5=Warm Stroms And Wild Flowers
TTITLE6=He Played Real Good For Free
TTITLE7=James Dean And The Junkmand
TTITLE8=Indian Song
TTITLE9=Fearless The Wonder Dog
TTITLE10=Spin of the Wheool
TTITLE11=Hearbreak Hotel
TTITLE12=We Could've Been Sweethearts
TTITLE13=Young Man
TTITLE14=Mr Winchester's Gun
TTITLE15=If You're A Cowboy
TTITLE16=American Dreams
TTITLE17=Mountain Right
TTITLE18=Cowboys On Horses With Wings
TTITLE19=I Collect Hearts
TTITLE20=We Were Buccaneers
TTITLE21=The Weight
TTITLE22=Thank You, Lord
TTITLE23=Blue Prelude
EXTD=YEAR: 1998 ID3G: 2
EXTT0=
EXTT1=
EXTT2=
EXTT3=
EXTT4=
EXTT5=
EXTT6=
EXTT7=
EXTT8=
EXTT9=
EXTT10=
EXTT11=
EXTT12=
EXTT13=
EXTT14=
EXTT15=
EXTT16=
EXTT17=
EXTT18=
EXTT19=
EXTT20=
EXTT21=
EXTT22=
EXTT23=
PLAYORDER=
